<svg xmlns="http://www.w3.org/2000/svg" viewBox="0 0 1232.88 229.01"><title>buffit_1</title><g id="Vrstva_2" data-name="Vrstva 2"><g id="Vrstva_1-2" data-name="Vrstva 1"><path id="path1360" d="M0,114.51V0H72c85.45,0,100.52,2.39,116.67,18.53,25.37,25.36,23.94,70.1-2.74,85.84l-10.58,6.24,9.45,5.75c13.94,8.47,22.25,27.1,22.25,49.88,0,23.63-5.62,37.6-19.34,48.06-16.29,12.43-32.71,14.55-113.2,14.63L0,229Zm139.38,56.24c2.71-2.71,4.93-9,4.93-13.94,0-13.91-9.76-18.78-37.68-18.78H82.89L72.43,120.78c-5.75-9.49-11-17.25-11.64-17.25S59.6,119.76,59.6,139.6v36.08H97c29.83,0,38.42-1,42.35-4.93Zm2-86.16c7-3.72,8.43-21.36,2.3-27.49-2.54-2.54-16.87-3.77-43.92-3.77H59.6V87.84H97.46C118.28,87.84,138,86.38,141.38,84.59Zm290.5,142.33c-1.15-1.15-2.1-32.92-2.1-70.59V87.84h160V138H489.39v91H461.68c-15.24,0-28.65-.94-29.8-2.09ZM618,158.42V87.84H778.27l-.92,24.31-.91,24.31-51,.87-51,.86V229H618Zm344,68.5c-1.15-1.15-2.09-52.68-2.09-114.51V0h59.6V229H991.85C976.61,229,963.2,228.07,962.05,226.92Zm134.89,0c-1.15-1.15-2.09-41.39-2.09-89.41V50.19H1029V0h102c56.07,0,102,.8,102,1.77S1228,14,1222.11,26.87l-10.78,23.32h-56.87V229h-27.71C1111.5,229,1098.09,228.07,1096.94,226.92Zm-819.31-4.87c-17.41-6.15-34.43-19.8-46.19-37.07-18.09-26.54-21.25-44.36-21.25-119.76V0h62.74V64.19c0,57.17.71,66.09,6.47,81.5,8.06,21.55,18.16,30,35.88,30,16.55,0,27.1-7.83,34.81-25.82,4.81-11.26,5.92-24.29,6.9-81.63L358.16,0h59.48l-1,76.08c-1,74.32-1.17,76.47-9.11,93.32-11.54,24.52-22.29,35.9-44.26,46.88-17.37,8.68-21.92,9.57-47.72,9.34-15.68-.13-32.75-1.74-37.93-3.57ZM430.44,25.88l.91-24.31L523.11.74c50.47-.46,91.76-.13,91.76.73s-5.25,12.17-11.66,25.14L591.54,50.19h-162ZM618,25.1V0h91c60,0,91,1.09,91,3.22,0,1.76-5,13.06-11,25.09l-11,21.88H618Z" fill="#aaa"/></g></g></svg>