<svg xmlns="http://www.w3.org/2000/svg" viewBox="0 0 481.01 337.92"><title>cap4</title><g id="Vrstva_2" data-name="Vrstva 2"><g id="Vrstva_1-2" data-name="Vrstva 1"><g id="Vrstva_1-2-2" data-name="Vrstva 1-2"><path id="path969-5" d="M256.62,333c-6.38,3.53-14.8,5.58-19.36,4.72-10.14-1.91-144.38-80.53-153.88-90.12-5.74-5.81-7.22-11.66-8.12-32.29-.94-21.34-.35-25,3.79-23.72,2.69.81,29.5,12.5,59.57,26s53.31,23.25,51.64,21.72-44.42-27.11-95-56.84-93-55.64-94.19-57.56-1.44-4.73-.5-6.25C3.43,113.92,234,0,240.49,0S477.54,113.92,480.42,118.58c.94,1.52.72,4.34-.5,6.27s-45.05,28.59-97.42,59.25-96.65,57-98.42,58.61,24.3-9.52,57.9-24.64,61.79-26.82,62.62-26,1.21,12.06.82,24.94c-.57,19.22-2,24.7-7.77,30.53s-97.8,61.53-141,85.39ZM59.74,304.83l-7.11-7.12-7.12-7.11-7.41,7-7.41,7V237.44c0-62.6.38-66.92,5.65-64.78,3.11,1.26,9.64,3.74,14.53,5.5l8.87,3.22Z" fill="#504e4d"/><polygon points="234.6 242.04 72.28 128.26 121.7 86.09 41.97 126.28 234.6 242.04" fill="#7d7b7b"/><polygon points="88.09 222.49 94.79 227.98 94.92 237.34 207.36 310.79 88.09 243.58 88.09 222.49" fill="#7d7b7b"/></g></g></g></svg>