<svg xmlns="http://www.w3.org/2000/svg" viewBox="0 0 865.53 625.81"><title>fitness_2</title><g id="Vrstva_2" data-name="Vrstva 2"><g id="Vrstva_1-2" data-name="Vrstva 1"><path id="path956-1" d="M307.2,616.59c-4.36-9.47-4.61-10.49-4.1-37.63.26-26.62,0-28.93-5.38-51.45-6.14-25.6-11.26-37.63-30.46-71.43-25.34-45.05-27.9-51.45-37.63-93.69-4.1-18.18-8.45-34.82-9.47-37.12l-2-4.35H185.85c-28.67,0-33.28-.51-43.26-3.84-24.32-8.19-47.87-26.37-99.33-77.06C22.53,219.8,4.35,200.34,2.82,197L0,191.13l8.45-14.85c4.61-8.19,10.75-20,13.57-26.37a153.46,153.46,0,0,1,12.54-21.76c11-15.36,40.45-42.75,57.6-53.5,41.73-26.37,60.67-39.17,71.42-49.15C189.18,2.2,195.07.92,227.84,11.93c31.23,10.49,46.59,18.43,53.24,26.88,5.12,6.4,5.64,7.93,4.61,15.36-1.28,10.75-8.19,24.06-14.85,28.93C259.33,91.29,244,89,221.69,75.16,199.17,61.34,201.47,61.59,191,69.78c-11.77,9.22-26.11,24.07-29.18,30-1.28,2.56-4.35,13.05-6.91,23.29a145.37,145.37,0,0,1-12.29,34.05c-4.35,8.7-7.42,16.13-6.66,16.64.52.51,5.64-.77,11-3.07,20.23-9,34.31-7.17,52.48,6.14,17.41,12.8,15.87,12.55,53.25,6.91,7.93-1.28,25.6,2.31,34.05,6.66,4.6,2.3,16.12,10.24,25.6,17.66s20.22,14.85,24.06,16.9c8.19,4.35,20.22,4.61,32.77,1,13.57-4.09,13.82-5.12,11.26-38.14-1.28-15.36-2.56-32-3.33-36.86-1.28-8.71-1.28-8.71-6.91-8.71-7.42,0-10.75-6.14-12-22.78-1.28-15.62,1-20.23,8.19-18.69l5.12,1-1.28-10A199.28,199.28,0,0,1,368.89,69c0-11.27.77-14.6,5.38-23.81C385.53,22.68,401.92,10.14,426,6.3,458.23,1.18,486.65,16,500.22,45c5.63,11.78,6.65,23.55,4.09,46.34L503,104.09l4.1-.77c6.91-1.28,8.45,2.82,7.68,19.71-.77,16.38-2.3,19.46-9.73,21-4.61,1-5.12,1.79-6.65,12.55-6.15,36.86-6.66,56.32-2.05,64,6.4,10.49,26.37,19.71,36.86,17.15,2.31-.51,11-7.43,19.46-15.36,11.26-10.75,17.15-15.11,24.57-17.67,15.36-5.63,32-7.42,53.76-5.37,10.5,1,20,1.79,21,1.79s6.4-3.84,11.78-8.7c14.85-13.06,22-15.88,41.22-15.62,14.08,0,31,2.3,38.91,5.38,1.53.51.25-1.8-2.82-5.12-10.24-11.52-14.33-23-16.13-43.78-1.79-22.27-2.81-24.58-18.17-49.41-12.55-20.22-16.9-25.34-24.32-28.16-7.17-2.81-12.29-.51-19.71,7.94-5.64,6.65-7.94,7.93-17.41,10-5.89,1.28-20.74,2.82-32.77,3.33l-22,1-8.2-5.64c-4.6-3.07-9.47-7.68-10.75-10.24-2.56-4.35-2.56-4.86,5.63-17.66,13.57-21.76,15.36-23,40.45-31C662.78-.36,679.42-2.92,692.22,3,696.06,4.76,706.3,12.7,715,20.89c9,8.19,26.37,22.27,39.17,31.49,42.24,30.46,53.76,43.77,81.92,94.2,7.16,12.8,16.89,28.16,21.24,34,6.66,8.7,8.2,12,8.2,17.66,0,6.66-1,7.94-32.52,39.94-45,45.82-54.52,54.78-68.35,66-25.34,20.48-40.44,25.85-81.92,28.67-14.08,1-26.88,2.56-28.67,3.33-1.79,1-5.37,9.21-9.47,22.52-13.82,45.32-22.27,62.47-56.83,114.69-24.58,37.63-27.14,45.83-30.72,99.58-2,30.47-2.82,33.28-13.82,45.32l-6.92,7.42H311.55Z"/></g></g></svg>