<svg xmlns="http://www.w3.org/2000/svg" viewBox="0 0 312.96 302.45"><title>Datový zdroj 1</title><g id="Vrstva_2" data-name="Vrstva 2"><g id="Vrstva_1-2" data-name="Vrstva 1"><path d="M0,220.22v-196c1.25-2.49,2.31-5.09,3.77-7.44C11.35,4.54,22.65,0,36.74,0q120,.22,240,.08c22,0,36.22,14.16,36.24,36.3q0,86.49-.13,173a40,40,0,0,1-1.35,10.85c-4.26,15-16.8,24.23-33.3,24.34-28.32.2-56.65,0-85,.11-15,.06-14.76.22-15,15.13-.09,5.1,1.78,6.54,6.56,7.73,8.64,2.14,17.34,4.79,25.26,8.75,7,3.52,6.79,10.26.23,14.66a44.39,44.39,0,0,1-11.2,5.35c-22.18,7.12-44.9,7.39-67.73,4.29-10.05-1.37-20.08-3.36-28.82-9.09-7.46-4.9-7.74-11.12,0-15.49a80.42,80.42,0,0,1,18.52-7.1c12.81-3.45,12.88-3.19,12.7-16.24-.11-7.92-.11-8-8.15-8-30.16,0-60.32.07-90.48-.07a47,47,0,0,1-12.75-1.84C10.85,239.38,4.32,230.83,0,220.22Zm155.71,2.46q60.73,0,121.46,0c9.27,0,13.85-4.36,13.85-13.19q0-87.48,0-175c0-7.59-4.47-12.19-12-12.42-6.16-.19-12.33-.16-18.49-.16q-112.71,0-225.42,0C25.39,22,21,26.27,21,35.91q0,85.73,0,171.46c0,11.49,3.63,15.26,15.26,15.28Q96,222.76,155.71,222.68Z"/><path d="M132.91,200.13c-7.71-.11-12.24-7.43-9.41-15.49,4.51-12.88,9.15-25.7,13.75-38.54q15.15-42.27,30.3-84.55c1.58-4.4,3.53-8.34,8.73-9.27,9.27-1.67,15.42,6.08,12.14,15.45C184,80.29,179.47,92.79,175,105.32q-15.13,42.27-30.28,84.55C142,197.36,138.7,200.21,132.91,200.13Z"/><path d="M45.88,125.64c1.57-2.75,2.67-6,4.84-8.26,11.73-12,23.66-23.89,35.65-35.69,5.64-5.55,11.7-5.82,16.27-1.1s4.27,10.71-1.2,16.26c-7.59,7.71-15.27,15.33-22.89,23-4.37,4.41-4.33,6.86.1,11.32,7.76,7.79,15.64,15.45,23.25,23.37,4.88,5.08,5.15,10.52,1.34,15.28C99,175.1,92.8,176.1,88,171.41c-13.14-12.75-26-25.8-38.8-38.89C47.67,131,47.19,128.47,45.88,125.64Z"/><path d="M218.48,78.3c1.54.88,4.64,1.93,6.76,4,12,11.71,23.89,23.64,35.73,35.56,5.75,5.79,5.91,11.73.23,17.51q-17.49,17.8-35.3,35.29c-4.84,4.79-12.47,4.91-16.64.55s-3.83-11,1.18-16.11c7.55-7.73,15.25-15.33,22.9-23,4.46-4.46,4.52-6.83.13-11.28-7.95-8-16-16-23.9-24.11-3.3-3.37-4.48-7.38-2.54-11.89C208.87,80.53,212.43,78.73,218.48,78.3Z"/></g></g></svg>