<svg xmlns="http://www.w3.org/2000/svg" viewBox="0 0 420.4 419.73"><title>video</title><g id="Vrstva_2" data-name="Vrstva 2"><g id="svg8"><path d="M403,0c5,25.12,9.82,49.72,14.81,75L207.78,116.77l.11,1h212.5v9.64q0,111.23,0,222.45c0,13-.23,26.16-6.62,38-11.61,21.46-30.21,31.79-54.29,31.82q-149.22.21-298.44,0c-35.43-.06-60.79-26-60.82-61.44Q.11,236.7,0,115.23c0-11.7,2.36-22.57,11-31.11C18.34,76.78,28,74,37.86,72.05q99.48-19.84,199-39.7Q318,16.23,399.16.28A34.34,34.34,0,0,1,403,0ZM41.13,216.35V352.64c0,19.89,5.62,25.48,25.59,25.49H355.64c1.83,0,3.67,0,5.5-.1,10.88-.81,17.3-7.22,18.16-18.11.16-2,.28-4,.28-6q0-65.73,0-131.46v-6.12Zm357.92-77.27c-15.69,0-31.34-.19-47,.18-2.78.07-6,1.93-8.15,3.94-9.42,8.93-18.52,18.21-27.71,27.38-1,1-1.82,2.09-3.3,3.81,17.07,0,33.18,0,49.29-.06a6.28,6.28,0,0,0,4.09-1.47C377.22,161.74,388,150.5,399.05,139.08Zm-5.49-80.61c-9.71-6.46-18.77-11.53-26.7-18-10.35-8.41-21.29-9.9-33.52-6-1.1.34-2.27.46-3.41.7l-29.28,6c13,8.68,24.83,16.89,37,24.59a15,15,0,0,0,9.7,2C362.36,65.12,377.24,61.83,393.56,58.47ZM186.46,99.85c-10.37-7.4-19.74-14.54-29.58-21-8.89-5.79-18.79-7-29.15-4.16-6.7,1.86-13.45,3.55-20.23,5.12-4.08.94-8.26,1.5-13.63,2.45,13.69,9,26.22,17.42,38.94,25.52a10.18,10.18,0,0,0,6.68,1C155,106,170.38,103,186.46,99.85Zm107.33,40.09-.41-1.8c-11.09,0-22.17-.24-33.25.07-10.57.3-20.56,3.27-28.42,10.52-8.35,7.71-16,16.23-24.28,24.81a17.23,17.23,0,0,0,3.71.85c15,.06,30,.16,45-.11a10.73,10.73,0,0,0,6.42-3c7.6-7.24,14.94-14.75,22.35-22.19C287.91,146.05,290.83,143,293.79,139.94Zm-96-78.55c10.44,7.45,20,14.91,30.19,21.34,8.93,5.63,19,6.4,29.31,3.69,8.49-2.22,17.07-4.11,25.62-6.12,2-.47,4-.85,7.09-1.51-13.49-8.92-25.89-17.24-38.46-25.27a10.15,10.15,0,0,0-6.66-1.09C229.4,55.22,213.94,58.28,197.82,61.39Zm-8.58,77.69c-17.39,0-33.51-.06-49.63.1a7.6,7.6,0,0,0-4.71,2.23c-9.73,9.78-19.34,19.69-29,29.59-.81.84-1.45,1.84-2.67,3.4,16.57,0,32.19,0,47.81-.07a7.09,7.09,0,0,0,4.57-1.57C166.63,161.92,177.46,150.94,189.24,139.08Z"/><path d="M186.92,349.78V238.65L277.75,294Z"/></g></g></svg>